<mxfile host="app.diagrams.net" modified="2021-05-21T15:05:47.919Z" agent="5.0 (Windows NT 10.0; Win64; x64) AppleWebKit/537.36 (KHTML, like Gecko) Chrome/90.0.4430.212 Safari/537.36" etag="6bsJQ4SpQ27nbku5uApi" version="14.6.13" type="github">
  <diagram id="NHRf0zaKVpTe1j8n_GZH" name="Page-1">
    <mxGraphModel dx="1422" dy="794" grid="1" gridSize="10" guides="1" tooltips="1" connect="1" arrows="1" fold="1" page="1" pageScale="1" pageWidth="827" pageHeight="1169" math="0" shadow="0">
      <root>
        <mxCell id="0" />
        <mxCell id="1" parent="0" />
        <mxCell id="BMk---I9VWnaJPF9FhYd-46" value="" style="rounded=0;whiteSpace=wrap;html=1;fontSize=20;" vertex="1" parent="1">
          <mxGeometry x="200" y="270" width="480" height="370" as="geometry" />
        </mxCell>
        <mxCell id="BMk---I9VWnaJPF9FhYd-2" value="" style="rounded=1;whiteSpace=wrap;html=1;" vertex="1" parent="1">
          <mxGeometry x="70" y="120" width="120" height="520" as="geometry" />
        </mxCell>
        <mxCell id="BMk---I9VWnaJPF9FhYd-7" value="" style="rounded=0;whiteSpace=wrap;html=1;fontSize=30;" vertex="1" parent="1">
          <mxGeometry x="80" y="130" width="100" height="30" as="geometry" />
        </mxCell>
        <mxCell id="BMk---I9VWnaJPF9FhYd-5" value="LOGO" style="text;html=1;strokeColor=none;fillColor=none;align=center;verticalAlign=middle;whiteSpace=wrap;rounded=0;fontSize=30;fontStyle=1" vertex="1" parent="1">
          <mxGeometry x="90" y="135" width="80" height="20" as="geometry" />
        </mxCell>
        <mxCell id="BMk---I9VWnaJPF9FhYd-9" value="" style="rounded=1;whiteSpace=wrap;html=1;fontSize=30;" vertex="1" parent="1">
          <mxGeometry x="75" y="170" width="110" height="450" as="geometry" />
        </mxCell>
        <mxCell id="BMk---I9VWnaJPF9FhYd-10" value="" style="rounded=1;whiteSpace=wrap;html=1;fontSize=30;" vertex="1" parent="1">
          <mxGeometry x="200" y="120" width="480" height="40" as="geometry" />
        </mxCell>
        <mxCell id="BMk---I9VWnaJPF9FhYd-11" value="" style="rounded=1;whiteSpace=wrap;html=1;fontSize=30;" vertex="1" parent="1">
          <mxGeometry x="200" y="170" width="480" height="90" as="geometry" />
        </mxCell>
        <mxCell id="BMk---I9VWnaJPF9FhYd-13" value="" style="rounded=1;whiteSpace=wrap;html=1;fontSize=30;" vertex="1" parent="1">
          <mxGeometry x="210" y="125" width="340" height="30" as="geometry" />
        </mxCell>
        <mxCell id="BMk---I9VWnaJPF9FhYd-14" value="THANH TÌM KIẾM" style="text;html=1;strokeColor=none;fillColor=none;align=center;verticalAlign=middle;whiteSpace=wrap;rounded=0;fontSize=20;" vertex="1" parent="1">
          <mxGeometry x="210" y="130" width="340" height="20" as="geometry" />
        </mxCell>
        <mxCell id="BMk---I9VWnaJPF9FhYd-15" value="" style="rounded=1;whiteSpace=wrap;html=1;fontSize=20;" vertex="1" parent="1">
          <mxGeometry x="560" y="125" width="110" height="30" as="geometry" />
        </mxCell>
        <mxCell id="BMk---I9VWnaJPF9FhYd-16" value="" style="rounded=1;whiteSpace=wrap;html=1;fontSize=20;" vertex="1" parent="1">
          <mxGeometry x="220" y="127.5" width="30" height="25" as="geometry" />
        </mxCell>
        <mxCell id="BMk---I9VWnaJPF9FhYd-17" value="" style="edgeStyle=segmentEdgeStyle;endArrow=classic;html=1;fontSize=20;exitX=1;exitY=0.5;exitDx=0;exitDy=0;" edge="1" parent="1" source="BMk---I9VWnaJPF9FhYd-16">
          <mxGeometry width="50" height="50" relative="1" as="geometry">
            <mxPoint x="250" y="100" as="sourcePoint" />
            <mxPoint x="300" y="50" as="targetPoint" />
            <Array as="points">
              <mxPoint x="270" y="140" />
              <mxPoint x="270" y="50" />
            </Array>
          </mxGeometry>
        </mxCell>
        <mxCell id="BMk---I9VWnaJPF9FhYd-18" value="NÚT TÌM KIẾM" style="text;html=1;strokeColor=none;fillColor=none;align=center;verticalAlign=middle;whiteSpace=wrap;rounded=0;fontSize=20;" vertex="1" parent="1">
          <mxGeometry x="300" y="40" width="170" height="20" as="geometry" />
        </mxCell>
        <mxCell id="BMk---I9VWnaJPF9FhYd-20" value="" style="rounded=1;whiteSpace=wrap;html=1;fontSize=20;" vertex="1" parent="1">
          <mxGeometry x="570" y="127.5" width="40" height="25" as="geometry" />
        </mxCell>
        <mxCell id="BMk---I9VWnaJPF9FhYd-21" value="" style="rounded=1;whiteSpace=wrap;html=1;fontSize=20;" vertex="1" parent="1">
          <mxGeometry x="620" y="127.5" width="40" height="25" as="geometry" />
        </mxCell>
        <mxCell id="BMk---I9VWnaJPF9FhYd-22" value="" style="edgeStyle=elbowEdgeStyle;elbow=vertical;endArrow=classic;html=1;fontSize=20;" edge="1" parent="1">
          <mxGeometry width="50" height="50" relative="1" as="geometry">
            <mxPoint x="580" y="130" as="sourcePoint" />
            <mxPoint x="640" y="50" as="targetPoint" />
            <Array as="points">
              <mxPoint x="580" y="50" />
            </Array>
          </mxGeometry>
        </mxCell>
        <mxCell id="BMk---I9VWnaJPF9FhYd-25" value="NÚT CÔNG CỤ NẾU CÓ" style="text;html=1;strokeColor=none;fillColor=none;align=center;verticalAlign=middle;whiteSpace=wrap;rounded=0;fontSize=20;" vertex="1" parent="1">
          <mxGeometry x="640" y="40" width="260" height="20" as="geometry" />
        </mxCell>
        <mxCell id="BMk---I9VWnaJPF9FhYd-27" value="" style="ellipse;whiteSpace=wrap;html=1;aspect=fixed;fontSize=20;" vertex="1" parent="1">
          <mxGeometry x="404" y="240" width="10" height="10" as="geometry" />
        </mxCell>
        <mxCell id="BMk---I9VWnaJPF9FhYd-28" value="" style="ellipse;whiteSpace=wrap;html=1;aspect=fixed;fontSize=20;" vertex="1" parent="1">
          <mxGeometry x="435" y="240" width="10" height="10" as="geometry" />
        </mxCell>
        <mxCell id="BMk---I9VWnaJPF9FhYd-29" value="" style="ellipse;whiteSpace=wrap;html=1;aspect=fixed;fontSize=20;" vertex="1" parent="1">
          <mxGeometry x="470" y="240" width="10" height="10" as="geometry" />
        </mxCell>
        <mxCell id="BMk---I9VWnaJPF9FhYd-35" value="" style="rounded=1;whiteSpace=wrap;html=1;fontSize=20;" vertex="1" parent="1">
          <mxGeometry x="210" y="580" width="460" height="45" as="geometry" />
        </mxCell>
        <mxCell id="BMk---I9VWnaJPF9FhYd-36" value="" style="rounded=1;whiteSpace=wrap;html=1;fontSize=20;" vertex="1" parent="1">
          <mxGeometry x="230" y="290" width="120" height="120" as="geometry" />
        </mxCell>
        <mxCell id="BMk---I9VWnaJPF9FhYd-37" value="" style="rounded=1;whiteSpace=wrap;html=1;fontSize=20;" vertex="1" parent="1">
          <mxGeometry x="380" y="290" width="120" height="120" as="geometry" />
        </mxCell>
        <mxCell id="BMk---I9VWnaJPF9FhYd-38" value="" style="rounded=1;whiteSpace=wrap;html=1;fontSize=20;" vertex="1" parent="1">
          <mxGeometry x="530" y="290" width="120" height="120" as="geometry" />
        </mxCell>
        <mxCell id="BMk---I9VWnaJPF9FhYd-39" value="" style="rounded=1;whiteSpace=wrap;html=1;fontSize=20;" vertex="1" parent="1">
          <mxGeometry x="230" y="430" width="120" height="120" as="geometry" />
        </mxCell>
        <mxCell id="BMk---I9VWnaJPF9FhYd-40" value="" style="rounded=1;whiteSpace=wrap;html=1;fontSize=20;" vertex="1" parent="1">
          <mxGeometry x="380" y="430" width="120" height="120" as="geometry" />
        </mxCell>
        <mxCell id="BMk---I9VWnaJPF9FhYd-41" value="" style="rounded=1;whiteSpace=wrap;html=1;fontSize=20;" vertex="1" parent="1">
          <mxGeometry x="530" y="440" width="120" height="120" as="geometry" />
        </mxCell>
        <mxCell id="BMk---I9VWnaJPF9FhYd-43" value="" style="endArrow=classic;html=1;fontSize=20;" edge="1" parent="1">
          <mxGeometry width="50" height="50" relative="1" as="geometry">
            <mxPoint x="650" y="350" as="sourcePoint" />
            <mxPoint x="720" y="280" as="targetPoint" />
          </mxGeometry>
        </mxCell>
        <mxCell id="BMk---I9VWnaJPF9FhYd-44" value="COMPONENT NHẠC" style="text;html=1;strokeColor=none;fillColor=none;align=center;verticalAlign=middle;whiteSpace=wrap;rounded=0;fontSize=20;" vertex="1" parent="1">
          <mxGeometry x="730" y="270" width="240" height="20" as="geometry" />
        </mxCell>
        <mxCell id="BMk---I9VWnaJPF9FhYd-47" value="" style="endArrow=classic;html=1;fontSize=20;" edge="1" parent="1">
          <mxGeometry width="50" height="50" relative="1" as="geometry">
            <mxPoint x="670" y="610" as="sourcePoint" />
            <mxPoint x="740" y="610" as="targetPoint" />
          </mxGeometry>
        </mxCell>
        <mxCell id="BMk---I9VWnaJPF9FhYd-48" value="PLAYER" style="text;html=1;strokeColor=none;fillColor=none;align=center;verticalAlign=middle;whiteSpace=wrap;rounded=0;fontSize=20;" vertex="1" parent="1">
          <mxGeometry x="750" y="600" width="220" height="20" as="geometry" />
        </mxCell>
        <mxCell id="BMk---I9VWnaJPF9FhYd-49" value="" style="rounded=1;whiteSpace=wrap;html=1;fontSize=20;" vertex="1" parent="1">
          <mxGeometry x="220" y="585" width="40" height="32.5" as="geometry" />
        </mxCell>
        <mxCell id="BMk---I9VWnaJPF9FhYd-51" value="" style="endArrow=classic;html=1;fontSize=20;" edge="1" parent="1" target="BMk---I9VWnaJPF9FhYd-52">
          <mxGeometry width="50" height="50" relative="1" as="geometry">
            <mxPoint x="240" y="620" as="sourcePoint" />
            <mxPoint x="240" y="700" as="targetPoint" />
          </mxGeometry>
        </mxCell>
        <mxCell id="BMk---I9VWnaJPF9FhYd-52" value="CD PLAYER" style="text;html=1;strokeColor=none;fillColor=none;align=center;verticalAlign=middle;whiteSpace=wrap;rounded=0;fontSize=20;" vertex="1" parent="1">
          <mxGeometry x="120" y="680" width="240" height="20" as="geometry" />
        </mxCell>
        <mxCell id="BMk---I9VWnaJPF9FhYd-53" value="" style="rounded=1;whiteSpace=wrap;html=1;fontSize=20;" vertex="1" parent="1">
          <mxGeometry x="270" y="587.5" width="310" height="30" as="geometry" />
        </mxCell>
        <mxCell id="BMk---I9VWnaJPF9FhYd-54" value="" style="endArrow=classic;html=1;fontSize=20;exitX=0.5;exitY=1;exitDx=0;exitDy=0;" edge="1" parent="1" source="BMk---I9VWnaJPF9FhYd-53">
          <mxGeometry width="50" height="50" relative="1" as="geometry">
            <mxPoint x="390" y="640" as="sourcePoint" />
            <mxPoint x="425" y="680" as="targetPoint" />
          </mxGeometry>
        </mxCell>
        <mxCell id="BMk---I9VWnaJPF9FhYd-55" value="CONTROL BAR" style="text;html=1;strokeColor=none;fillColor=none;align=center;verticalAlign=middle;whiteSpace=wrap;rounded=0;fontSize=20;" vertex="1" parent="1">
          <mxGeometry x="330" y="680" width="190" height="20" as="geometry" />
        </mxCell>
        <mxCell id="BMk---I9VWnaJPF9FhYd-56" value="" style="rounded=1;whiteSpace=wrap;html=1;fontSize=20;" vertex="1" parent="1">
          <mxGeometry x="590" y="586.25" width="70" height="30" as="geometry" />
        </mxCell>
        <mxCell id="BMk---I9VWnaJPF9FhYd-58" value="" style="endArrow=classic;html=1;fontSize=20;" edge="1" parent="1" target="BMk---I9VWnaJPF9FhYd-59">
          <mxGeometry width="50" height="50" relative="1" as="geometry">
            <mxPoint x="620" y="616.25" as="sourcePoint" />
            <mxPoint x="620" y="680" as="targetPoint" />
          </mxGeometry>
        </mxCell>
        <mxCell id="BMk---I9VWnaJPF9FhYd-59" value="ÂM LƯỢNG VÀ GÌ ĐÓ" style="text;html=1;strokeColor=none;fillColor=none;align=center;verticalAlign=middle;whiteSpace=wrap;rounded=0;fontSize=20;" vertex="1" parent="1">
          <mxGeometry x="520" y="670" width="210" height="30" as="geometry" />
        </mxCell>
        <mxCell id="BMk---I9VWnaJPF9FhYd-61" value="" style="ellipse;whiteSpace=wrap;html=1;aspect=fixed;fontSize=20;" vertex="1" parent="1">
          <mxGeometry x="250" y="290" width="80" height="80" as="geometry" />
        </mxCell>
        <mxCell id="BMk---I9VWnaJPF9FhYd-62" value="" style="rounded=1;whiteSpace=wrap;html=1;fontSize=20;" vertex="1" parent="1">
          <mxGeometry x="230" y="370" width="120" height="20" as="geometry" />
        </mxCell>
        <mxCell id="BMk---I9VWnaJPF9FhYd-63" value="" style="rounded=1;whiteSpace=wrap;html=1;fontSize=20;" vertex="1" parent="1">
          <mxGeometry x="240" y="390" width="100" height="20" as="geometry" />
        </mxCell>
      </root>
    </mxGraphModel>
  </diagram>
</mxfile>
